<?xml version="1.0" standalone="no"?><!DOCTYPE svg PUBLIC "-//W3C//DTD SVG 1.1//EN" "http://www.w3.org/Graphics/SVG/1.1/DTD/svg11.dtd"><svg t="1654222406885" class="icon" viewBox="0 0 1024 1024" version="1.1" xmlns="http://www.w3.org/2000/svg" p-id="1543" xmlns:xlink="http://www.w3.org/1999/xlink" width="200" height="200"><defs><style type="text/css"></style></defs><path d="M642.64516104 860.38709698H381.35483896c-47.90322597 0-87.09677402-39.19354805-87.09677402-87.09677403V512c0-47.90322597 39.19354805-87.09677402 87.09677402-87.09677402h261.29032208c47.90322597 0 87.09677402 39.19354805 87.09677402 87.09677402v261.29032295c0 47.90322597-39.19354805 87.09677402-87.09677402 87.09677402zM381.35483896 482.967742c-15.967742 0-29.032258 13.06451602-29.032258 29.032258v261.29032295c0 15.967742 13.06451602 29.032258 29.032258 29.03225801h261.29032208c15.967742 0 29.032258-13.06451602 29.032258-29.03225801V512c0-15.967742-13.06451602-29.032258-29.032258-29.032258H381.35483896z" fill="#1890FF" p-id="1544"></path><path d="M493.12903203 744.25806494c-8.70967705 0-15.967742-2.90322597-21.77419307-8.70967793L375.54838701 642.64516104c-11.61290302-11.61290302-11.61290302-30.48387099 0-42.09677403 11.61290302-11.61290302 30.48387099-11.61290302 43.54838701 0l74.03225801 72.58064502 111.77419395-108.87096709c11.61290302-11.61290302 30.48387099-11.61290302 43.54838701 0 11.61290302 11.61290302 11.61290302 30.48387099 0 42.09677402l-133.54838702 129.19354805c-5.80645195 5.80645195-13.06451602 8.70967705-21.77419394 8.70967793z" fill="#FFC13D" p-id="1545"></path><path d="M178.12903203 149.09677403c-47.90322597 0-87.09677402 39.19354805-87.09677402 87.09677402v72.58064589c0 15.967742 13.06451602 29.032258 29.03225801 29.03225801h783.87096796c15.967742 0 29.032258-13.06451602 29.03225801-29.03225801v-72.58064589c0-47.90322597-39.19354805-87.09677402-87.09677402-87.09677403H178.12903203z" fill="#D3EAFF" p-id="1546"></path><path d="M845.87096797 120.06451602H700.70967705V91.03225801c0-15.967742-13.06451602-29.032258-29.03225801-29.03225801s-29.032258 13.06451602-29.032258 29.032258v29.03225802H381.35483896V91.03225801c0-15.967742-13.06451602-29.032258-29.032258-29.03225801s-29.032258 13.06451602-29.03225801 29.032258v29.03225802H178.12903203c-63.87096797 0-116.12903203 52.25806494-116.12903203 116.12903203v72.58064589c0 21.77419394 11.61290302 39.19354805 29.03225801 49.35483809V845.87096797c0 63.87096797 52.25806494 116.12903203 116.12903203 116.12903203h609.67741993c63.87096797 0 116.12903203-52.25806494 116.12903203-116.12903203V358.12903203c17.41935498-10.16129004 29.032258-29.032258 29.032258-49.35483808v-72.5806459c0-63.87096797-52.25806494-116.12903203-116.12903203-116.12903203z m29.032258 725.80645195c0 31.93548398-26.12903203 58.06451602-58.064516 58.06451601H207.16129004c-31.93548398 0-58.06451602-26.12903203-58.06451601-58.06451601V366.83870996h725.80645195v479.03225801z m29.03225801-537.09677403H120.06451602v-72.58064589c0-31.93548398 26.12903203-58.06451602 58.06451601-58.06451602h145.16129092v72.58064502c0 15.967742 13.06451602 29.032258 29.03225801 29.03225801s29.032258-13.06451602 29.032258-29.03225801V178.12903203h261.29032208v72.58064502c0 15.967742 13.06451602 29.032258 29.032258 29.03225801s29.032258-13.06451602 29.03225801-29.03225801V178.12903203h145.16129092c31.93548398 0 58.06451602 26.12903203 58.06451601 58.06451602v72.5806459z" fill="#1890FF" p-id="1547"></path></svg>